<svg xmlns="http://www.w3.org/2000/svg" width="67.216" height="23.223" viewBox="0 0 67.216 23.223"><g transform="translate(-130.021 -30.931)"><path d="M7.021-12.5q-3.315-.043-3.315-3.348v-3.24q0-2.181-1.685-2.289v-1.253q1.685-.108,1.685-2.333v-3.153q0-3.348,3.315-3.391v1.382Q5.3-30.083,5.3-27.988v3.164q0,2.268-1.62,2.786v.043q1.62.486,1.62,2.765v3.121A2.923,2.923,0,0,0,5.688-14.4a1.611,1.611,0,0,0,1.334.535Z" transform="translate(128 66)" fill="#e9e9e9"/><path d="M6.45-21.357q-1.688.108-1.688,2.294v3.247q0,3.312-3.312,3.355v-1.364a1.626,1.626,0,0,0,1.337-.541,2.87,2.87,0,0,0,.4-1.71V-19.2q0-2.284,1.613-2.771v-.043q-1.613-.519-1.613-2.792v-3.171q0-2.1-1.732-2.143v-1.385q3.312.043,3.312,3.4v3.16q0,2.229,1.688,2.338Z" transform="translate(190.788 66)" fill="#e9e9e9"/><path d="M2.52-4.143a1.914,1.914,0,0,1-1.444-.568A2.111,2.111,0,0,1,.527-6.24,2.32,2.32,0,0,1,1.11-7.9,2.042,2.042,0,0,1,2.666-8.52a1.9,1.9,0,0,1,1.456.557A2.193,2.193,0,0,1,4.646-6.4a2.289,2.289,0,0,1-.58,1.646A2.036,2.036,0,0,1,2.52-4.143Zm.111-3.346q-.855,0-.855,1.189,0,1.125.814,1.125.832,0,.832-1.172Q3.422-7.488,2.631-7.488ZM8.654-8.4,3.182,0H1.752L7.213-8.4Zm-.9,8.52A1.914,1.914,0,0,1,6.308-.451,2.111,2.111,0,0,1,5.76-1.98a2.32,2.32,0,0,1,.583-1.664A2.042,2.042,0,0,1,7.9-4.26a1.913,1.913,0,0,1,1.459.551A2.179,2.179,0,0,1,9.879-2.15,2.31,2.31,0,0,1,9.3-.5,2.026,2.026,0,0,1,7.752.117Zm.094-3.346Q7-3.229,7-2.039,7-.914,7.822-.914t.832-1.172a1.39,1.39,0,0,0-.223-.844A.7.7,0,0,0,7.846-3.229Z" transform="translate(136.021 48.011)" fill="#e9e9e9"/><path d="M2.52-4.143a1.914,1.914,0,0,1-1.444-.568A2.111,2.111,0,0,1,.527-6.24,2.32,2.32,0,0,1,1.11-7.9,2.042,2.042,0,0,1,2.666-8.52a1.9,1.9,0,0,1,1.456.557A2.193,2.193,0,0,1,4.646-6.4a2.289,2.289,0,0,1-.58,1.646A2.036,2.036,0,0,1,2.52-4.143Zm.111-3.346q-.855,0-.855,1.189,0,1.125.814,1.125.832,0,.832-1.172Q3.422-7.488,2.631-7.488ZM8.654-8.4,3.182,0H1.752L7.213-8.4Zm-.9,8.52A1.914,1.914,0,0,1,6.308-.451,2.111,2.111,0,0,1,5.76-1.98a2.32,2.32,0,0,1,.583-1.664A2.042,2.042,0,0,1,7.9-4.26a1.913,1.913,0,0,1,1.459.551A2.179,2.179,0,0,1,9.879-2.15,2.31,2.31,0,0,1,9.3-.5,2.026,2.026,0,0,1,7.752.117Zm.094-3.346Q7-3.229,7-2.039,7-.914,7.822-.914t.832-1.172a1.39,1.39,0,0,0-.223-.844A.7.7,0,0,0,7.846-3.229Z" transform="translate(180.021 48.011)" fill="#e9e9e9"/><path d="M15.888-5.253H15.8a3.621,3.621,0,0,1-3.6,2.7A3.923,3.923,0,0,1,9.055-3.965a5.893,5.893,0,0,1-1.2-3.922,8.081,8.081,0,0,1,1.657-5.275,5,5,0,0,1,3.993-2.032,2.45,2.45,0,0,1,2.648,1.657h.057l.142-1.4h3.186Q18.9-8.907,18.9-7.052q0,1.982,1.076,1.982,1.133,0,1.869-1.5a8.944,8.944,0,0,0,.736-3.922,7.365,7.365,0,0,0-2.11-5.43,7.947,7.947,0,0,0-5.891-2.117,8.9,8.9,0,0,0-6.733,2.825A9.631,9.631,0,0,0,5.168-8.326a8.17,8.17,0,0,0,2.372,6.2A9.093,9.093,0,0,0,14.089.142a13.8,13.8,0,0,0,5.834-1.218v2.7a16.009,16.009,0,0,1-6.23,1.034A12.116,12.116,0,0,1,5.19-.333a10.37,10.37,0,0,1-3.278-8.05,11.8,11.8,0,0,1,3.5-8.666,12.163,12.163,0,0,1,9.006-3.512,12.158,12.158,0,0,1,8.248,2.726,9.039,9.039,0,0,1,3.151,7.186,8.652,8.652,0,0,1-1.926,5.884,6.072,6.072,0,0,1-4.772,2.216,3.386,3.386,0,0,1-2.28-.75A2.669,2.669,0,0,1,15.888-5.253ZM14-12.73a2.362,2.362,0,0,0-2.074,1.451,6.854,6.854,0,0,0-.8,3.363A3.574,3.574,0,0,0,11.675-5.8a1.665,1.665,0,0,0,1.409.758,2.325,2.325,0,0,0,2.1-1.43,8.134,8.134,0,0,0,.765-3.823,2.744,2.744,0,0,0-.531-1.784A1.727,1.727,0,0,0,14-12.73Z" transform="translate(149.021 51.491)" fill="#f0684e"/></g></svg>